<?xml version="1.0" encoding="UTF-8"?><svg id="Layer_2" xmlns="http://www.w3.org/2000/svg" viewBox="0 0 120.04 28.68"><defs><style>.cls-1{fill:#3e3e3e;}.cls-2{fill:#ac272f;}</style></defs><g id="Layer_1-2"><g><g><path class="cls-1" d="m3.62,27.55v-.27c.2-.06.44-.1.68-.11l-.38-1.02H1.45l-.38,1.02c.23.02.48.06.68.11v.27H0v-.27c.14-.04.38-.09.53-.1l1.9-5.02h.56l1.89,5.02c.16.02.38.06.53.1v.27h-1.78Zm-.7-4.1c-.1-.26-.17-.5-.24-.77h0c-.07.25-.14.5-.24.75l-.85,2.29h2.18l-.85-2.28Z"/><path class="cls-1" d="m8.86,22.53l-1.52,3.06v1.58c.24.02.49.06.7.11v.27h-1.9v-.27c.21-.06.46-.1.7-.11v-1.58l-1.49-3.06c-.15-.02-.38-.06-.53-.1v-.27h1.77v.27c-.2.06-.44.1-.66.11l.75,1.66c.15.32.3.64.42.95h.02c.13-.33.31-.68.46-1.02l.74-1.58c-.23-.02-.47-.06-.67-.11v-.27h1.73v.27c-.14.04-.37.09-.53.1Z"/><path class="cls-1" d="m12.17,27.55v-.27c.2-.06.44-.1.68-.11l-.38-1.02h-2.47l-.38,1.02c.23.02.48.06.68.11v.27h-1.75v-.27c.14-.04.38-.09.53-.1l1.9-5.02h.56l1.89,5.02c.16.02.38.06.53.1v.27h-1.78Zm-.7-4.1c-.1-.26-.17-.5-.24-.77h0c-.07.25-.14.5-.24.75l-.85,2.29h2.18l-.85-2.28Z"/><path class="cls-1" d="m17.76,23.42c-.06-.28-.09-.54-.11-.76-.34-.09-.65-.12-.97-.12-1.37,0-1.92,1.07-1.92,2.34,0,1.45.64,2.28,2.02,2.28.45,0,.98-.13,1.34-.3l.04.46c-.42.18-.95.3-1.53.3-1.6,0-2.43-.96-2.43-2.65s.75-2.86,2.61-2.86c.42,0,.86.06,1.27.16v1.15h-.33Z"/><path class="cls-1" d="m23.37,22.54v2.97c0,1.37-.7,2.1-2.1,2.1-1.66,0-1.97-.94-1.97-1.84v-3.24c-.2-.02-.41-.06-.58-.11v-.27h1.77v.27c-.2.06-.45.1-.68.11v3.18c0,.8.27,1.48,1.5,1.48,1.03,0,1.55-.43,1.55-1.64v-3.02c-.23-.02-.48-.06-.68-.11v-.27h1.77v.27c-.18.05-.38.09-.58.11Z"/><path class="cls-1" d="m28.05,23.42c-.06-.28-.09-.54-.11-.76-.34-.09-.65-.12-.97-.12-1.37,0-1.92,1.07-1.92,2.34,0,1.45.64,2.28,2.02,2.28.45,0,.98-.13,1.34-.3l.04.46c-.42.18-.95.3-1.53.3-1.6,0-2.43-.96-2.43-2.65s.75-2.86,2.61-2.86c.42,0,.86.06,1.27.16v1.15h-.33Z"/><path class="cls-1" d="m32.61,27.55v-.27c.21-.06.45-.1.68-.11v-2.21h-3.08v2.21c.23.02.47.06.68.11v.27h-1.89v-.27c.21-.06.46-.1.7-.11v-4.63c-.24-.02-.49-.06-.7-.11v-.27h1.89v.27c-.21.06-.45.1-.68.11v2h3.08v-2c-.23-.02-.47-.06-.68-.11v-.27h1.9v.27c-.21.06-.46.1-.7.11v4.63c.24.02.49.06.7.11v.27h-1.9Z"/><path class="cls-1" d="m37.39,27.62c-1.6,0-2.37-1.09-2.37-2.71,0-1.82,1.14-2.81,2.5-2.81,1.48,0,2.38.99,2.38,2.71,0,1.81-1.14,2.81-2.51,2.81Zm.07-5.09c-1.01,0-1.89.82-1.89,2.28s.62,2.37,1.88,2.37c1,0,1.9-.82,1.9-2.29s-.7-2.37-1.89-2.37Z"/><path class="cls-1" d="m43.18,27.61c-.33,0-.57-.02-.77-.07l.05-.47c.21.07.46.1.76.1.83,0,1.37-.51,1.37-1.17,0-.75-.67-1.18-1.96-1.05v-.42c1.27.03,1.84-.37,1.84-1.14,0-.58-.38-.89-.98-.89-.21,0-.46.06-.62.12-.02.24-.06.5-.1.74h-.3v-1.06c.33-.14.68-.22,1.09-.22,1.02,0,1.45.57,1.45,1.23s-.37,1.12-.94,1.33v.02c.62.08,1.07.6,1.07,1.3,0,.93-.82,1.63-1.95,1.63Z"/><path class="cls-1" d="m48.15,27.62c-1.09,0-1.71-.79-1.71-2.18,0-2.42,1.22-3.34,2.68-3.34.15,0,.31,0,.38.02v.46c-.14-.02-.26-.03-.45-.03-1.2,0-1.84.74-2.05,2.01-.02.1-.04.24-.07.38v.02c.26-.47.75-.76,1.41-.76,1,0,1.65.69,1.65,1.56,0,1.11-.73,1.88-1.84,1.88Zm.1-3.01c-.75,0-1.25.54-1.25,1.27s.46,1.33,1.18,1.33c.82,0,1.3-.57,1.3-1.38,0-.7-.44-1.23-1.22-1.23Z"/><path class="cls-1" d="m50.5,28.48c.5-.53.5-.91.36-1.1-.18-.23,0-.54.26-.54.47,0,.67.82-.38,1.83l-.23-.2Z"/><path class="cls-1" d="m57.07,23.42c-.06-.28-.09-.54-.11-.76-.34-.09-.65-.12-.97-.12-1.37,0-1.92,1.07-1.92,2.34,0,1.45.64,2.28,2.02,2.28.45,0,.98-.13,1.34-.3l.04.46c-.42.18-.95.3-1.53.3-1.6,0-2.43-.96-2.43-2.65s.75-2.86,2.61-2.86c.42,0,.86.06,1.27.16v1.15h-.33Z"/><path class="cls-1" d="m58.02,27.55v-.27c.21-.06.46-.1.7-.11v-4.63c-.24-.02-.49-.06-.7-.11v-.27h3.35v1.16h-.33c-.05-.28-.1-.55-.12-.75h-1.69v2.01h1.34c.03-.22.07-.44.13-.62h.29v1.64h-.29c-.06-.18-.1-.42-.13-.62h-1.34v2.17h1.7c.02-.22.08-.5.13-.77h.33v1.18h-3.37Z"/><path class="cls-1" d="m66.99,22.55v5h-.69l-2.41-3.77c-.24-.38-.45-.74-.63-1.09.06,1,.06,2.67.06,4.47.23.02.48.06.68.12v.27h-1.88v-.27c.21-.06.46-.1.7-.12v-4.62c-.24-.02-.49-.06-.7-.11v-.27h1.38l2.38,3.73c.23.36.45.74.66,1.1-.06-.98-.06-2.65-.06-4.45-.24-.02-.48-.06-.68-.12v-.27h1.78v.27c-.18.05-.38.1-.59.12Z"/><path class="cls-1" d="m71.57,23.37c-.06-.34-.11-.6-.13-.8h-1.31v4.6c.24.02.49.06.7.11v.27h-1.9v-.27c.21-.06.46-.1.7-.11v-4.6h-1.3c-.02.2-.06.46-.13.8h-.32v-1.22h4.02v1.22h-.32Z"/><path class="cls-1" d="m75.26,27.55l-1.74-2.55h-.12v2.17c.22.02.46.06.66.11v.27h-1.87v-.27c.21-.06.46-.1.7-.11v-4.63c-.24-.02-.49-.06-.7-.11v-.27h.62c.22,0,.64-.02,1.28-.02.98,0,1.74.34,1.74,1.33s-.77,1.48-1.73,1.52c.14.18.29.37.42.55l1.14,1.62c.2.02.43.06.69.12v.28h-1.08Zm-1.31-5.01c-.22,0-.38,0-.55.02v2.03c.09,0,.26.02.52.02.88,0,1.38-.44,1.38-1.06,0-.75-.49-1.01-1.35-1.01Z"/><path class="cls-1" d="m79.13,27.62c-1.6,0-2.37-1.09-2.37-2.71,0-1.82,1.14-2.81,2.5-2.81,1.48,0,2.37.99,2.37,2.71,0,1.81-1.13,2.81-2.51,2.81Zm.07-5.09c-1.01,0-1.89.82-1.89,2.28s.62,2.37,1.88,2.37c1,0,1.89-.82,1.89-2.29s-.7-2.37-1.89-2.37Z"/><path class="cls-1" d="m82.98,27.22c0,.22-.17.39-.38.39s-.38-.18-.38-.39.17-.38.38-.38.38.18.38.38Z"/><path class="cls-1" d="m88.57,23.42c-.06-.28-.09-.54-.11-.76-.33-.09-.65-.12-.97-.12-1.37,0-1.92,1.07-1.92,2.34,0,1.45.64,2.28,2.02,2.28.45,0,.98-.13,1.34-.3l.04.46c-.42.18-.95.3-1.53.3-1.6,0-2.43-.96-2.43-2.65s.75-2.86,2.61-2.86c.42,0,.86.06,1.27.16v1.15h-.33Z"/><path class="cls-1" d="m92.02,27.62c-1.6,0-2.37-1.09-2.37-2.71,0-1.82,1.14-2.81,2.5-2.81,1.48,0,2.37.99,2.37,2.71,0,1.81-1.13,2.81-2.51,2.81Zm.07-5.09c-1.01,0-1.89.82-1.89,2.28s.62,2.37,1.88,2.37c1,0,1.89-.82,1.89-2.29s-.7-2.37-1.89-2.37Zm-.08-.84l-.25-.28.95-.89.31.35-1.02.82Z"/><path class="cls-1" d="m98.13,27.55l-1.74-2.55h-.12v2.17c.22.02.46.06.66.11v.27h-1.87v-.27c.21-.06.46-.1.7-.11v-4.63c-.24-.02-.49-.06-.7-.11v-.27h.62c.22,0,.64-.02,1.28-.02.98,0,1.74.34,1.74,1.33s-.77,1.48-1.73,1.52c.14.18.29.37.42.55l1.14,1.62c.2.02.43.06.69.12v.28h-1.08Zm-1.31-5.01c-.22,0-.38,0-.55.02v2.03c.09,0,.26.02.52.02.88,0,1.38-.44,1.38-1.06,0-.75-.49-1.01-1.35-1.01Z"/><path class="cls-1" d="m101.45,27.58c-.53,0-.94-.02-1.26-.02h-.7v-.27c.21-.06.46-.1.7-.11v-4.63c-.24-.02-.49-.06-.7-.11v-.27h.69c.42,0,.98-.02,1.52-.02,1.77,0,2.79.86,2.79,2.68s-1.27,2.77-3.05,2.77Zm.19-5.03c-.32,0-.7.02-.94.02v4.53c.24.03.58.06.82.06,1.44,0,2.43-.71,2.43-2.31s-.81-2.29-2.32-2.29Z"/><path class="cls-1" d="m107.55,27.62c-1.6,0-2.37-1.09-2.37-2.71,0-1.82,1.14-2.81,2.5-2.81,1.48,0,2.37.99,2.37,2.71,0,1.81-1.13,2.81-2.51,2.81Zm.07-5.09c-1.01,0-1.89.82-1.89,2.28s.62,2.37,1.88,2.37c1,0,1.89-.82,1.89-2.29s-.7-2.37-1.89-2.37Z"/><path class="cls-1" d="m112.51,27.58c-.32,0-.82-.02-1.23-.02h-.7v-.27c.21-.06.46-.1.7-.11v-4.63c-.24-.02-.49-.06-.7-.11v-.27h.69c.34,0,.79-.02,1.43-.02,1.18,0,1.7.5,1.7,1.26,0,.6-.42,1.12-1.05,1.29h0c.84.13,1.18.7,1.18,1.27s-.3,1.61-2.03,1.61Zm.1-5.03c-.28,0-.58,0-.82.02v1.99c.16,0,.34,0,.54,0,1.02,0,1.55-.39,1.55-1.07,0-.54-.25-.94-1.26-.94Zm-.29,2.41c-.1,0-.4,0-.54,0v2.15c.15.02.4.05.78.05,1.02,0,1.45-.5,1.45-1.17,0-.82-.75-1.04-1.69-1.04Z"/><path class="cls-1" d="m118.25,27.55v-.27c.2-.06.44-.1.68-.11l-.38-1.02h-2.47l-.38,1.02c.23.02.48.06.68.11v.27h-1.75v-.27c.14-.04.38-.09.53-.1l1.9-5.02h.56l1.89,5.02c.16.02.38.06.53.1v.27h-1.78Zm-.7-4.1c-.1-.26-.17-.5-.24-.77h0c-.07.25-.14.5-.24.75l-.85,2.29h2.18l-.85-2.28Z"/></g><g><g><path class="cls-1" d="m26.87,17.07c-.41,0-.79-.05-1.09-.14v-1.17h.33c.05.29.09.54.11.77.22.05.46.09.69.09.74,0,1.36-.3,1.36-1.08,0-1.34-2.55-.85-2.55-2.54,0-.84.67-1.46,1.82-1.46.36,0,.65.04.97.1v1.14h-.33c-.06-.29-.1-.54-.11-.76-.14-.02-.37-.06-.56-.06-.83,0-1.27.39-1.27.98,0,1.3,2.56.83,2.56,2.52,0,.94-.74,1.6-1.93,1.6Z"/><path class="cls-1" d="m29.53,17v-.27c.21-.06.46-.1.7-.11v-4.63c-.24-.02-.49-.06-.7-.11v-.27h3.35v1.16h-.33c-.05-.28-.1-.55-.12-.75h-1.69v2.01h1.34c.03-.22.07-.44.13-.62h.29v1.64h-.29c-.06-.18-.1-.42-.13-.62h-1.34v2.17h1.7c.02-.22.08-.5.13-.77h.33v1.18h-3.37Z"/><path class="cls-1" d="m38.26,14.69v2.08c-.54.2-1.19.29-1.74.29-1.58,0-2.65-.97-2.65-2.66s1.07-2.86,2.83-2.86c.5,0,.96.07,1.43.19v1.14h-.33c-.06-.28-.09-.53-.11-.76-.35-.09-.72-.14-1.06-.14-1.15,0-2.22.75-2.22,2.35,0,1.5.9,2.32,2.19,2.32.43,0,.79-.06,1.14-.18v-1.77c-.24-.02-.49-.06-.7-.1v-.28h1.78v.28c-.18.05-.38.08-.58.1Z"/><path class="cls-1" d="m44,11.99v2.97c0,1.37-.7,2.1-2.1,2.1-1.66,0-1.97-.93-1.97-1.84v-3.24c-.2-.02-.41-.06-.58-.11v-.27h1.77v.27c-.2.06-.45.1-.68.11v3.18c0,.8.27,1.48,1.5,1.48,1.03,0,1.55-.43,1.55-1.64v-3.02c-.23-.02-.48-.06-.68-.11v-.27h1.77v.27c-.18.05-.38.09-.58.11Z"/><path class="cls-1" d="m45.26,17v-.27c.21-.06.46-.1.7-.11v-4.63c-.24-.02-.49-.06-.7-.11v-.27h1.9v.27c-.21.06-.46.1-.7.11v4.63c.24.02.49.06.7.11v.27h-1.9Z"/><path class="cls-1" d="m52.68,12v5h-.69l-2.41-3.77c-.24-.38-.45-.74-.63-1.09.06,1,.06,2.67.06,4.47.23.02.48.06.68.12v.27h-1.88v-.27c.21-.06.46-.1.7-.12v-4.62c-.24-.02-.49-.06-.7-.11v-.27h1.38l2.38,3.73c.23.36.45.74.66,1.1-.06-.98-.06-2.65-.06-4.45-.24-.02-.48-.06-.68-.12v-.27h1.77v.27c-.18.05-.38.1-.59.12Z"/><path class="cls-1" d="m56.28,17.07c-1.6,0-2.37-1.09-2.37-2.71,0-1.82,1.14-2.81,2.5-2.81,1.48,0,2.38.99,2.38,2.71,0,1.81-1.14,2.81-2.51,2.81Zm.07-5.09c-1.01,0-1.89.82-1.89,2.28s.62,2.38,1.88,2.38c1,0,1.9-.82,1.9-2.29s-.7-2.37-1.89-2.37Z"/><path class="cls-1" d="m60.8,17.07c-.41,0-.79-.05-1.09-.14v-1.17h.33c.05.29.09.54.11.77.22.05.46.09.69.09.74,0,1.36-.3,1.36-1.08,0-1.34-2.55-.85-2.55-2.54,0-.84.67-1.46,1.82-1.46.36,0,.65.04.97.1v1.14h-.33c-.06-.29-.1-.54-.11-.76-.14-.02-.37-.06-.56-.06-.83,0-1.27.39-1.27.98,0,1.3,2.56.83,2.56,2.52,0,.94-.74,1.6-1.93,1.6Z"/><path class="cls-1" d="m65.21,17v-.27c.21-.06.46-.1.7-.11v-4.63c-.24-.02-.49-.06-.7-.11v-.27h3.35v1.16h-.33c-.05-.28-.1-.55-.12-.75h-1.7v2.01h1.34c.03-.22.07-.44.13-.62h.29v1.64h-.29c-.06-.18-.1-.42-.13-.62h-1.34v2.17h1.7c.02-.22.08-.5.13-.77h.33v1.18h-3.37Z"/><path class="cls-1" d="m74.29,12v5h-.69l-2.41-3.77c-.24-.38-.45-.74-.63-1.09.06,1,.06,2.67.06,4.47.23.02.48.06.68.12v.27h-1.88v-.27c.21-.06.46-.1.7-.12v-4.62c-.24-.02-.49-.06-.7-.11v-.27h1.38l2.38,3.73c.23.36.45.74.66,1.1-.06-.98-.06-2.65-.06-4.45-.24-.02-.48-.06-.68-.12v-.27h1.78v.27c-.18.05-.38.1-.59.12Z"/></g><path class="cls-2" d="m78.93,16.9c0-1.79,0-3.59,0-5.38,0,0,.01-.02.01-.03.04-.25.18-.43.39-.55.09-.05.19-.07.28-.1,1.79,0,3.59,0,5.38,0,0,0,.02.01.03.01.38.07.66.39.66.77,0,1.73,0,3.46,0,5.19,0,.43-.35.78-.78.78-1.73,0-3.46,0-5.19,0-.26,0-.47-.11-.63-.32-.08-.11-.12-.24-.16-.37Zm4.46.16h.07c.46,0,.92,0,1.38,0,.2,0,.31-.1.31-.31,0-1.69,0-3.39,0-5.08,0-.2-.1-.31-.3-.31-1.7,0-3.39,0-5.09,0-.2,0-.3.11-.3.31,0,1.69,0,3.39,0,5.08,0,.2.1.31.31.31.91,0,1.82,0,2.73,0h.07v-2.15h-.78v-.82h.79s0-.06,0-.09c0-.22,0-.44.02-.66.05-.5.51-.97,1.01-1.02.24-.02.47-.01.71-.02,0,0,0,0,.01,0v.81s-.05,0-.07,0c-.15,0-.3,0-.45,0-.21,0-.38.12-.39.31-.02.21,0,.43,0,.66h.94c-.05.28-.09.55-.14.82h-.81v2.15Z"/><g><path class="cls-2" d="m88.01,15.39c0-.79,0-1.59,0-2.38,0-.03,0-.07.01-.1.03-.2.04-.41.08-.61.12-.55.44-.96.95-1.22.32-.16.67-.21,1.02-.22.88,0,1.77,0,2.65,0,.2,0,.41.03.61.08.54.12.96.41,1.21.92.16.32.22.67.22,1.02,0,.89,0,1.78,0,2.67,0,.2-.03.4-.08.59-.15.64-.53,1.09-1.16,1.3-.29.1-.59.12-.9.13-.1,0-.2,0-.3.01h-2.14s-.06,0-.1-.01c-.19-.02-.38-.03-.57-.07-.54-.1-.96-.39-1.23-.87-.17-.29-.23-.61-.26-.95,0-.11-.02-.22-.03-.33Zm6.14-1.26s0,0,0,0c0-.25,0-.51,0-.76-.01-.29-.02-.59-.06-.87-.07-.47-.34-.79-.81-.93-.3-.09-.61-.11-.93-.11-.54,0-1.08,0-1.62,0-.36,0-.72,0-1.07.05-.52.09-.85.39-.97.9-.08.33-.09.66-.09,1,0,.6,0,1.21,0,1.81,0,.25.02.5.07.75.09.49.38.82.87.95.25.06.5.08.76.08.64,0,1.27,0,1.91,0,.32,0,.63,0,.95-.07.47-.1.79-.38.9-.85.05-.21.08-.44.08-.66.01-.43,0-.85,0-1.28Z"/><path class="cls-2" d="m91.39,12.49c.96,0,1.74.78,1.74,1.74,0,.96-.78,1.74-1.74,1.74-.96,0-1.73-.77-1.73-1.73,0-.96.77-1.74,1.73-1.74Zm1.13,1.74c0-.63-.49-1.13-1.12-1.13-.62,0-1.13.5-1.13,1.11,0,.62.5,1.13,1.11,1.13.63,0,1.13-.5,1.13-1.12Z"/><path class="cls-2" d="m93.2,12.83c-.23,0-.4-.18-.4-.41,0-.22.18-.4.4-.4.23,0,.41.18.41.41,0,.23-.18.4-.41.4Z"/></g></g><g><g><path class="cls-1" d="m39.99,6.94c-.38,0-.79-.04-1.09-.11l.1-1.13c.29.1.64.15,1,.15.85,0,1.37-.41,1.37-.98,0-.74-.79-1.05-2.17-.89v-1.02c1.51.05,2.07-.44,2.07-1.11,0-.51-.31-.8-.83-.8-.17,0-.39.04-.53.08-.02.25-.06.49-.1.76h-.82V.27c.44-.17,1.01-.27,1.6-.27,1.42,0,2.02.79,2.02,1.65,0,.72-.42,1.32-1.09,1.6v.02c.78.16,1.24.78,1.24,1.54,0,1.21-1.05,2.13-2.77,2.13Z"/><path class="cls-1" d="m44.61,6.94c-.24,0-.58-.03-.83-.08l.12-1.14c.24.07.51.1.78.1.94,0,1.47-.48,1.47-1.13s-.51-1.04-1.55-1.04c-.25,0-.44,0-.61.03V.1h3.34v1.22h-2.14s0,1.29,0,1.29c1.44,0,2.32.74,2.32,1.95,0,1.44-1.2,2.38-2.9,2.38Z"/><path class="cls-1" d="m51.85,6.04v.81h-3.42v-.81c.36-.07.76-.11,1.14-.13V1.38l-1.15.46-.2-1.17,1.73-.57h.95v5.81c.3.02.63.07.95.13Z"/><path class="cls-1" d="m54.75,6.85v-1.08l1.01-1.14c1.22-1.37,1.6-1.97,1.6-2.65,0-.47-.27-.82-.86-.82-.2,0-.41.04-.59.1-.02.25-.05.5-.1.73h-.92V.27c.47-.16,1.13-.27,1.74-.27,1.5,0,2.14.82,2.14,1.82s-.59,1.82-1.73,3.13l-.6.7h0c.7-.03,1.48-.03,2.53-.03v1.23h-4.22Z"/><path class="cls-1" d="m63.76,5.2v.75c.28.02.57.07.81.13v.77h-2.97v-.77c.26-.06.57-.11.87-.13v-.75h-2.74l-.18-.98L62.11.1h1.65v3.97h1.01v1.13h-1.01Zm-1.27-3.87h0l-1.69,2.78c.44-.02,1.38-.02,1.7-.02V1.33Z"/><path class="cls-1" d="m67.44,6.85h-1.44c.46-1.87,1.2-4.07,1.87-5.64h-1.69c-.02.25-.06.52-.12.85h-1V.1h4.22v1.08c-.69,1.58-1.41,3.76-1.84,5.67Z"/><path class="cls-1" d="m69.67,4.82v-1.02h2.46v1.02h-2.46Z"/><path class="cls-1" d="m75.43,6.96c-1.4,0-2.34-.95-2.34-2.87C73.09,1.33,74.62.01,76.57.01c.33,0,.6,0,.78.04v1.14c-.27-.06-.5-.08-.8-.08-1.03,0-1.75.56-2.03,1.66-.03.09-.05.21-.09.34h0c.33-.36.81-.58,1.46-.58,1.29,0,2.08.84,2.08,1.99,0,1.49-1.04,2.44-2.55,2.44Zm.14-3.37c-.66,0-1.08.48-1.08,1.09,0,.68.37,1.19,1.03,1.19.73,0,1.12-.5,1.12-1.17s-.37-1.11-1.07-1.11Z"/><path class="cls-1" d="m81.21,6.96c-1.4,0-2.34-.95-2.34-2.87C78.87,1.33,80.4.01,82.35.01c.33,0,.6,0,.78.04v1.14c-.27-.06-.5-.08-.8-.08-1.03,0-1.75.56-2.03,1.66-.03.09-.05.21-.09.34h0c.33-.36.81-.58,1.46-.58,1.29,0,2.08.84,2.08,1.99,0,1.49-1.04,2.44-2.55,2.44Zm.14-3.37c-.66,0-1.08.48-1.08,1.09,0,.68.37,1.19,1.03,1.19.73,0,1.12-.5,1.12-1.17s-.37-1.11-1.07-1.11Z"/><path class="cls-1" d="m88.03,6.04v.81h-3.42v-.81c.36-.07.76-.11,1.14-.13V1.38l-1.15.46-.2-1.17,1.73-.57h.95v5.81c.3.02.63.07.95.13Z"/><path class="cls-1" d="m92.15,6.04v.81h-3.42v-.81c.36-.07.76-.11,1.14-.13V1.38l-1.15.46-.2-1.17,1.73-.57h.95v5.81c.3.02.63.07.95.13Z"/></g><g><path class="cls-2" d="m29.13,7.55c.04-.16.08-.31.12-.45.13-.47.26-.93.39-1.4.02-.05,0-.1-.02-.15-.36-.65-.51-1.35-.45-2.09.13-1.57,1.19-2.88,2.73-3.3,1.26-.34,2.41-.08,3.41.76.67.56,1.09,1.28,1.24,2.14.21,1.16-.07,2.2-.83,3.1-.56.66-1.27,1.08-2.12,1.24-.85.17-1.66.05-2.42-.34-.05-.03-.1-.03-.15-.02-.6.16-1.2.32-1.81.48-.03,0-.05.01-.09.02Zm.9-.89c.37-.1.73-.19,1.08-.28.07-.02.12,0,.18.03.92.53,1.88.61,2.85.19,1.38-.6,2.1-2.05,1.78-3.52-.29-1.36-1.53-2.38-2.92-2.41-.48-.01-.95.07-1.38.28-1.11.55-1.73,1.44-1.81,2.68-.04.64.12,1.23.47,1.77.06.09.07.17.04.27-.1.33-.18.66-.28,1Z"/><path class="cls-2" d="m30.99,2.92c0-.31.13-.57.35-.78.07-.07.15-.1.25-.1.06,0,.12,0,.17,0,.09,0,.15.04.18.12.11.26.22.51.32.77.02.04,0,.11-.02.15-.07.11-.15.21-.23.31-.05.06-.05.12-.01.18.3.51.73.88,1.28,1.1.08.03.14.02.19-.05.09-.11.18-.23.27-.34.07-.09.1-.11.21-.06.26.12.52.25.78.37.05.03.07.07.06.12-.01.39-.12.58-.54.76-.25.1-.5.08-.75,0-.88-.25-1.53-.8-2.06-1.52-.17-.24-.33-.49-.4-.78-.02-.09-.03-.18-.04-.27Z"/></g></g></g></g></svg>